<?xml version="1.0" standalone="no"?>
<!DOCTYPE svg PUBLIC "-//W3C//DTD SVG 20010904//EN"
 "http://www.w3.org/TR/2001/REC-SVG-20010904/DTD/svg10.dtd">
<svg version="1.0" xmlns="http://www.w3.org/2000/svg"
 width="700.000000pt" height="700.000000pt" viewBox="0 0 700.000000 700.000000"
 preserveAspectRatio="xMidYMid meet">
<metadata>
Created by potrace 1.11, written by Peter Selinger 2001-2013
</metadata>
<g transform="translate(0.000000,700.000000) scale(0.100000,-0.100000)"
fill="#000000" stroke="none">
<path d="M3757 6224 c-1 -1 -26 -5 -55 -8 -135 -16 -270 -126 -318 -258 -34
-92 -26 -221 19 -318 12 -25 46 -70 77 -101 76 -77 153 -111 280 -123 69 -6
328 -79 415 -116 11 -5 83 -32 160 -60 199 -73 314 -138 476 -268 161 -129
269 -248 391 -432 156 -233 257 -503 299 -795 17 -121 15 -396 -5 -515 -21
-133 -23 -143 -56 -257 -81 -282 -233 -546 -437 -763 -291 -307 -634 -491
-1078 -575 -61 -11 -183 -19 -300 -19 -116 0 -281 11 -296 19 -4 3 -24 7 -45
11 -208 31 -504 152 -708 289 -173 115 -293 226 -451 416 -42 50 -141 207
-191 304 -66 126 -135 310 -160 426 -40 190 -51 309 -45 512 l1 38 28 -21 c15
-12 43 -36 62 -53 19 -18 118 -104 220 -192 161 -139 210 -181 264 -230 6 -5
43 -37 81 -70 39 -33 72 -62 75 -65 3 -3 34 -30 70 -60 36 -30 69 -60 75 -66
5 -6 64 -57 130 -114 127 -109 216 -186 300 -260 28 -25 80 -70 115 -100 35
-30 68 -60 74 -65 6 -6 42 -37 81 -70 38 -33 83 -72 100 -87 71 -65 172 -103
281 -107 168 -5 254 41 439 240 402 431 665 817 770 1131 18 57 36 117 39 133
3 17 10 53 15 80 12 60 7 249 -8 325 -28 142 -105 318 -186 425 -195 259 -484
427 -764 442 -160 9 -290 -20 -444 -98 -43 -21 -79 -39 -82 -39 -2 0 1 15 6
33 37 122 47 299 22 414 -51 247 -237 472 -475 577 -209 93 -470 93 -747 0
-239 -80 -413 -193 -611 -398 -178 -185 -280 -327 -401 -560 -165 -319 -266
-606 -303 -861 -4 -23 -8 -51 -11 -63 -19 -102 -27 -455 -12 -607 15 -168 50
-338 104 -515 89 -292 235 -580 422 -830 84 -114 126 -162 241 -279 465 -472
1065 -751 1735 -807 70 -5 342 -5 390 1 22 2 65 7 96 9 80 7 253 36 309 51 3
1 19 5 35 9 494 128 908 360 1250 701 134 133 164 166 225 245 19 25 37 47 41
50 3 3 44 64 91 135 75 113 187 319 225 411 7 16 20 49 31 74 51 122 105 302
141 470 19 89 23 120 35 230 17 155 23 387 11 495 -3 28 -7 70 -10 95 -7 75
-24 187 -35 238 -25 111 -51 212 -65 251 -8 23 -14 44 -14 47 1 2 -4 17 -9 32
-6 15 -24 63 -40 107 -143 380 -397 752 -703 1029 -127 114 -202 173 -334 259
-158 103 -254 152 -433 221 -346 134 -661 226 -830 244 -45 4 -84 7 -85 6z
m-1080 -1320 c143 -69 215 -221 176 -372 -25 -96 -100 -231 -182 -328 -14 -17
-46 -55 -71 -84 -25 -29 -49 -59 -53 -66 -12 -21 -19 -18 -79 34 -30 26 -105
90 -168 142 -128 108 -127 108 -205 175 -32 28 -62 53 -68 57 -10 6 51 110 90
153 10 11 31 38 47 59 45 60 145 158 196 193 43 28 112 58 155 66 42 7 112 -5
162 -29z m1167 -908 c108 -53 207 -167 236 -271 20 -70 16 -178 -9 -249 -21
-59 -81 -174 -104 -198 -6 -7 -34 -40 -60 -73 -54 -67 -166 -185 -176 -185 -6
0 -17 9 -98 80 -22 19 -62 53 -89 75 -26 22 -69 58 -94 80 -25 22 -63 54 -84
70 -20 17 -45 37 -54 46 -9 9 -65 57 -125 107 l-107 91 28 33 c16 18 40 46 53
62 273 331 480 432 683 332z"/>
</g>
</svg>
