<?xml version="1.0" encoding="utf-8"?>
<!-- Generator: Adobe Illustrator 25.2.1, SVG Export Plug-In . SVG Version: 6.00 Build 0)  -->
<svg version="1.1" id="Layer_1" xmlns="http://www.w3.org/2000/svg" xmlns:xlink="http://www.w3.org/1999/xlink" x="0px" y="0px"
	 viewBox="0 0 400 400" style="enable-background:new 0 0 400 400;" xml:space="preserve">
<style type="text/css">
	.st0{fill:none;stroke:#88AFB0;stroke-width:46;stroke-linecap:round;stroke-miterlimit:10;}
	.st1{fill:none;stroke:#88AFB0;stroke-width:46;stroke-miterlimit:10;}
	.st2{fill:none;stroke:#88AFB0;stroke-width:30;stroke-miterlimit:10;}
	.st3{fill:#88AFB0;}
</style>
<g>
	<g>
		<g>
			<path class="st0" d="M265.8,82.9c-3.1-1.5-39.6-15.7-50.8-15.5"/>
			<path class="st1" d="M118.4,104.6c-14.1,12.8-21.3,21-32.4,46.3c-29.1,66.2,5.3,143.3,72.3,170.4c67,27.1,143.3-5.3,170.4-72.3
				c25.8-63.8-2.3-136-62.9-166.2"/>
			<g>
				<path class="st2" d="M265.1,303.7"/>
			</g>
		</g>
		<g>
			<path class="st3" d="M65.3,163.1c-3.5-3.1-4.6-8.1-2.6-12.3c4.9-10.6,11.7-26.7,21.9-42.4c16.1-24.8,35.3-32.9,45.3-36.2
				c15.6-5.2,36.6-7.3,53.9,7.2c13.6,11.5,21.1,28.9,14.1,51.1l0.5,0.4c19.5-12.3,42.8-10.8,62.9,6.2c15.8,13.4,22.3,30.9,22.1,47.6
				c-0.5,18.1-10.4,39.9-35.8,69.9c-6.5,7.7-12.5,14.2-17.8,19.6c-9.5,9.7-24.9,10.3-35.2,1.4L65.3,163.1z M144.5,169.4
				c0,0,6.8-8,6.8-8c14.9-17.6,15.9-30.5,5.9-39c-9.1-7.7-19.9-5.6-31.3,7.8c-6.1,7.2-8.8,11.4-10.6,14.4L144.5,169.4z M213.3,227.7
				c3-2.6,6.1-6.2,10.8-11.8c11.2-13.2,15-28.8,0.9-40.8c-13.6-11.5-27.8-4-40.7,11.2l-8.3,9.8L213.3,227.7z"/>
		</g>
	</g>
</g>
</svg>
