<?xml version="1.0" encoding="utf-8"?>
<!-- Generator: Adobe Illustrator 25.2.1, SVG Export Plug-In . SVG Version: 6.00 Build 0)  -->
<svg version="1.1" id="Layer_1" xmlns="http://www.w3.org/2000/svg" xmlns:xlink="http://www.w3.org/1999/xlink" x="0px" y="0px"
	 viewBox="0 0 1600 600" style="enable-background:new 0 0 1600 600;" xml:space="preserve">
<style type="text/css">
	.st0{fill:#333333;}
	.st1{fill:none;stroke:#88AFB0;stroke-width:46;stroke-linecap:round;stroke-miterlimit:10;}
	.st2{fill:none;stroke:#88AFB0;stroke-width:46;stroke-miterlimit:10;}
	.st3{fill:none;stroke:#88AFB0;stroke-width:30;stroke-miterlimit:10;}
	.st4{fill:#88AFB0;}
</style>
<g>
	<g>
		<g>
			<path class="st0" d="M369.9,421.5c0.7-11.4,1.4-31.8,1.4-51.3V172.3h53.4v97.9h0.7c10.2-14.8,28-24.3,51.8-24.3
				c41.3,0,71.3,34.1,70.9,86.7c0,61.9-39.2,92.8-78.6,92.8c-20.1,0-39.4-7.4-51.4-27.8h-0.7l-2.2,23.9H369.9z M424.7,348.6
				c0,3.4,0.3,6.6,0.9,9.4c3.5,14.3,15.8,25.4,31.4,25.4c22.7,0,36.8-17.7,36.8-48.6c0-26.7-11.9-47.8-36.7-47.8
				c-14.7,0-28,10.8-31.4,26.3c-0.7,3-1.1,6.4-1.1,9.9V348.6z"/>
			<path class="st0" d="M750.6,333.9c0,62.8-44.5,91.5-90.5,91.5c-50,0-88.7-33-88.7-88.5c0-55.4,36.6-91,91.8-91
				C715.7,245.9,750.6,282,750.6,333.9z M626.4,335.7c0,29.3,12.4,51.6,35.1,51.6c20.8,0,34-20.8,34-51.8c0-25.3-9.8-51.4-34-51.4
				C636.1,284,626.4,310.2,626.4,335.7z"/>
			<path class="st0" d="M953.1,333.9c0,62.8-44.5,91.5-90.5,91.5c-50,0-88.7-33-88.7-88.5c0-55.4,36.6-91,91.8-91
				C918.2,245.9,953.1,282,953.1,333.9z M828.9,335.7c0,29.3,12.4,51.6,35.1,51.6c20.8,0,34-20.8,34-51.8c0-25.3-9.8-51.4-34-51.4
				C838.7,284,828.9,310.2,828.9,335.7z"/>
			<path class="st0" d="M1039.6,322.3h0.7c4-7.3,8.2-14.3,12.4-20.7l34.8-51.9h64l-61.6,69.7l70.3,102.1h-65.6l-41.5-70.6l-13.5,17
				v53.5h-53.4V172.3h53.4V322.3z"/>
			<path class="st0" d="M1176.2,375c9.7,6,30.3,12.8,45.8,12.8c16.1,0,23-5.4,23-14.2c0-8.9-5.5-13.2-25.2-19.9
				c-35.7-11.7-49.2-31.2-49-51.3c0-32.3,27.2-56.5,69.9-56.5c20.1,0,37.9,4.7,48.4,10l-9.3,36.8c-7.7-4.1-22.7-9.7-37.2-9.7
				c-13,0-20.5,5.2-20.5,13.8c0,8.2,6.8,12.6,27.9,19.8c32.6,11.1,46.3,27.8,46.5,52.9c0,32.1-25,55.7-74.2,55.7
				c-22.4,0-42.5-5.1-55.6-12.1L1176.2,375z"/>
			<path class="st0" d="M1388.4,200.7v49h38.5v39.4h-38.5v62.2c0,20.7,5.1,30.3,21.1,30.3c6.9,0,12.2-0.7,15.9-1.6l0.4,40.6
				c-6.9,2.5-19.6,4.6-34.6,4.6c-17.3,0-31.7-6-40.3-14.9c-9.9-10.2-14.8-26.5-14.8-50.9v-70.3h-22.8v-39.4h22.8v-36.9L1388.4,200.7
				z"/>
			<path class="st0" d="M1457.6,306.4c0-25.2-0.5-41.8-1.4-56.6h45.9l1.9,31.8h1.3c8.8-25.1,29.7-35.7,46.4-35.7
				c4.9,0,7.4,0.1,11.4,1v50.2c-4.1-0.9-8.4-1.5-14.4-1.5c-19.6,0-33,10.4-36.6,27.1c-0.7,3.4-1,7.6-1,11.9v86.9h-53.5V306.4z"/>
		</g>
	</g>
	<g>
		<g>
			<path class="st1" d="M232.3,202.2c-3.1-1.5-39.6-15.7-50.8-15.5"/>
			<path class="st2" d="M84.9,224c-14.1,12.8-21.3,21-32.4,46.3c-29.1,66.2,5.3,143.3,72.3,170.4c67,27.1,143.3-5.3,170.4-72.3
				c25.8-63.8-2.3-136-62.9-166.2"/>
			<g>
				<path class="st3" d="M231.7,423.1"/>
			</g>
		</g>
		<g>
			<path class="st4" d="M31.9,282.5c-3.5-3.1-4.6-8.1-2.6-12.3c4.9-10.6,11.7-26.7,21.9-42.4c16.1-24.8,35.3-32.9,45.3-36.2
				c15.6-5.2,36.6-7.3,53.9,7.2c13.6,11.5,21.1,28.9,14.1,51.1l0.5,0.4c19.5-12.3,42.8-10.8,62.9,6.2c15.8,13.4,22.3,30.9,22.1,47.6
				c-0.5,18.1-10.4,39.9-35.8,69.9c-6.5,7.7-12.5,14.2-17.8,19.6c-9.5,9.7-24.9,10.3-35.2,1.4L31.9,282.5z M111,288.8
				c0,0,6.8-8,6.8-8c14.9-17.6,15.9-30.5,5.9-39c-9.1-7.7-19.9-5.6-31.3,7.8c-6.1,7.2-8.8,11.4-10.6,14.4L111,288.8z M179.9,347.1
				c3-2.6,6.1-6.2,10.8-11.8c11.2-13.2,15-28.8,0.9-40.8c-13.6-11.5-27.8-4-40.7,11.2l-8.3,9.8L179.9,347.1z"/>
		</g>
	</g>
</g>
</svg>
